<?xml version="1.0" encoding="iso-8859-1"?>
<!-- Generator: Adobe Illustrator 19.0.0, SVG Export Plug-In . SVG Version: 6.00 Build 0)  -->
<svg version="1.1" id="Capa_1" xmlns="http://www.w3.org/2000/svg" xmlns:xlink="http://www.w3.org/1999/xlink" x="0px" y="0px"
	 viewBox="0 0 512 512" style="enable-background:new 0 0 512 512;" xml:space="preserve">
<g>
	<g>
		<path d="M497,391c8.291,0,15-6.709,15-15v-30c0-5.009-2.954-10.265-7.28-12.861l-144.743-86.246L344.24,120H421v15
			c0,8.291,6.709,15,15,15c8.291,0,15-6.709,15-15v-30c0-1.221-0.419-2.305-0.694-3.441c-0.121-0.505-0.123-0.972-0.295-1.463
			c-0.916-2.618-2.514-4.794-4.612-6.52c-0.189-0.156-0.209-0.427-0.405-0.573l-120-90c-0.2-0.15-0.485-0.092-0.69-0.231
			C321.892,1.132,319.105,0,316,0H196c-3.104,0-5.889,1.132-8.302,2.772c-0.205,0.139-0.493,0.081-0.692,0.231l-120,90
			c-0.196,0.146-0.216,0.417-0.405,0.573c-2.098,1.727-3.697,3.902-4.612,6.52c-0.172,0.491-0.174,0.958-0.295,1.463
			C61.419,102.695,61,103.779,61,105v30c0,8.291,6.709,15,15,15s15-6.709,15-15v-15h76.76l-15.736,126.892L7.28,333.139
			C2.955,335.741,0,340.986,0,346v30c0,8.291,6.709,15,15,15s15-6.709,15-15v-15h31v15c0,8.291,6.709,15,15,15s15-6.709,15-15v-15
			h46.76l-15,121H15c-8.291,0-15,6.709-15,15c0,8.291,6.709,15,15,15h121h240h121c8.291,0,15-6.709,15-15c0-8.291-6.709-15-15-15
			H389.24l-15-121H421v15c0,8.291,6.709,15,15,15c8.291,0,15-6.709,15-15v-15h31v15C482,384.291,488.709,391,497,391z M141.51,331
			H70.155l77.139-46.282L141.51,331z M391,90h-50.51l-5.226-41.805L391,90z M316.015,136.052l9.97,80.763l-47.805-45.599
			L316.015,136.052z M307.923,241H204.17l51.974-49.305L307.923,241z M223.281,120h65.945l-33.036,30.703L223.281,120z M209.242,30
			h93.516l7.5,60H201.742L209.242,30z M196.04,135.619l38.117,35.561L186,216.936L196.04,135.619z M332.758,271l7.5,60H171.742
			l7.5-60H332.758z M319.589,361l-64.949,41.464L188.295,361H319.589z M121,90l55.735-41.805L171.51,90H121z M165.363,382.039
			l61.28,38.3l-71.797,46.835L165.363,382.039z M187.368,482l67.444-44.055L323.701,482H187.368z M282.808,420.07l63.514-40.549
			l10.882,88.045L282.808,420.07z M370.49,331l-5.784-46.282L441.845,331H370.49z"/>
	</g>
</g>
<g>
</g>
<g>
</g>
<g>
</g>
<g>
</g>
<g>
</g>
<g>
</g>
<g>
</g>
<g>
</g>
<g>
</g>
<g>
</g>
<g>
</g>
<g>
</g>
<g>
</g>
<g>
</g>
<g>
</g>
</svg>
